<svg xmlns:dc="http://purl.org/dc/elements/1.1/" xmlns:cc="http://creativecommons.org/ns#" xmlns:rdf="http://www.w3.org/1999/02/22-rdf-syntax-ns#" xmlns:svg="http://www.w3.org/2000/svg" xmlns="http://www.w3.org/2000/svg" xmlns:sodipodi="http://sodipodi.sourceforge.net/DTD/sodipodi-0.dtd" xmlns:inkscape="http://www.inkscape.org/namespaces/inkscape" version="1.1" enable-background="new 0 0 100 100" xml:space="preserve" sodipodi:docname="noun_411593_cc.svg" width="149.14139" height="135.34062" inkscape:version="0.92.2 5c3e80d, 2017-08-06" style=""><rect id="backgroundrect" width="100%" height="100%" x="0" y="0" fill="none" stroke="none"/><metadata id="metadata18"><rdf:RDF><cc:Work rdf:about=""><dc:format>image/svg+xml</dc:format><dc:type rdf:resource="http://purl.org/dc/dcmitype/StillImage"/><dc:title/></cc:Work></rdf:RDF></metadata><defs id="defs16"/><sodipodi:namedview pagecolor="#ffffff" bordercolor="#ffffff" borderopacity="1" objecttolerance="10" gridtolerance="10" guidetolerance="10" inkscape:pageopacity="0" inkscape:pageshadow="2" inkscape:window-width="640" inkscape:window-height="480" id="namedview14" showgrid="false" fit-margin-top="10" fit-margin-left="10" fit-margin-right="10" fit-margin-bottom="10" inkscape:zoom="1.888" inkscape:cx="55" inkscape:cy="72.648623" inkscape:window-x="496" inkscape:window-y="94" inkscape:window-maximized="0" inkscape:current-layer="svg12"/><g class="currentLayer" style=""><title>Layer 1</title><g id="g6" class="selected" fill="#ffffff" fill-opacity="1"><path d="m125.6964785173,50.78669997389999 c-1.3516647786,-0.8164514427 -3.0649214088,-1.5597235820999997 -3.8124982130999996,-1.8710943432 c0.0875281863,-0.7676652405 0.2697590004,-2.5225336314 0.2697590004,-4.075082771999999 c0,-19.213154337 -15.631673140199998,-34.840522812299994 -34.8433925889,-34.840522812299994 c-11.0515096866,0 -21.5591967075,5.3320449228 -28.108026908699998,14.258485037099998 c-0.7145743734000001,0.9771589323000002 -1.4305836350999999,2.1465928967999997 -1.8926176676999997,2.9372163501 c-0.8164514427,-0.47638291560000007 -2.0734135934999998,-1.1651292996 -3.2787197655,-1.6214237789999997 c-2.4809218707,-0.9398518365000001 -5.093853465,-1.4176696404 -7.772789921099999,-1.4176696404 c-12.1865063319,0 -22.1015844849,9.9136432647 -22.1015844849,22.098714708299998 c0,1.5683329118999998 0.27549855360000003,3.2399777814 0.401768724,3.9344637185999995 c-0.6284810754000001,0.3415034154 -2.1351137903999997,1.1938270656 -3.3461595155999997,2.0978066945999996 C14.189873835999999,57.50484699449999 10,65.8372433526 10,74.57140843469999 c0,15.310258160999998 12.456265332300001,27.765088605 27.766523493299996,27.765088605 h10.2967584408 c1.2627017040000001,0 2.2857770618999997,-1.0216404696 2.2857770618999997,-2.2843421736 c0,-1.2641365923 -1.0230753579,-2.2857770618999997 -2.2857770618999997,-2.2857770618999997 h-10.2967584408 c-12.792029194499998,0 -23.1978391461,-10.4043750633 -23.1978391461,-23.194969369499997 c0,-7.406893404599999 3.4150341539999998,-14.192480175299998 9.3669508224,-18.620545469099998 c1.2526574859000001,-0.9298076184000001 3.0261794246999996,-1.8682245666 3.0362236428,-1.8753990080999998 c1.5712026884999999,-0.8178863310000001 2.482356759,-2.7478110945 2.1221997957,-4.486895714099999 c-0.0028697766000000003,-0.0186535479 -0.37020118139999997,-1.8108290345999998 -0.37020118139999997,-3.3332455209 c0,-9.665407588799999 7.8660576606,-17.5300303611 17.534335026,-17.5300303611 c2.1221997957,0 4.1913087243,0.3759407346 6.1513661421,1.1206477623 c1.5138071564999998,0.5725204317000001 3.2973733133999996,1.7189961833999998 3.3131570847,1.7304752897999998 c0.8336701023,0.5395180008 1.8567454602,0.7131394851 2.8095112914,0.4735131390000001 c0.9570704961000002,-0.23819145780000003 1.7792614919999998,-0.8767167513 2.2628188491,-1.7491288377 c0.010044218100000002,-0.0200884362 1.0862104431000001,-1.9701016358999999 2.0920671414,-3.3418548507 c5.692201886099999,-7.758441038099999 14.8209612507,-12.391695358799998 24.4232337543,-12.391695358799998 c16.6949253705,0 30.274708241699997,13.579782871199999 30.274708241699997,30.273273353399997 c0,1.7118217419 -0.27406366530000004,3.8512401972 -0.2783683302,3.8698937450999997 c-0.23675656950000004,1.7979150399000001 0.8537585385,3.644616282 2.5282731845999997,4.300360235099999 c0.0200884362,0.007174441500000001 2.0877624765,0.8351049906000001 3.5039972286,1.6874286407999999 c7.0338224465999994,4.2415298148 11.233740500699998,11.669946543899998 11.233740500699998,19.8717680667 c0,12.7905943062 -10.405809951599998,23.194969369499997 -23.1978391461,23.194969369499997 h-10.2967584408 c-1.2627017040000001,0 -2.2857770618999997,1.0216404696 -2.2857770618999997,2.2857770618999997 c0,1.2627017040000001 1.0230753579,2.2843421736 2.2857770618999997,2.2843421736 h10.2967584408 c15.310258160999998,0 27.766523493299996,-12.454830443999999 27.766523493299996,-27.765088605 C139.13994699999998,64.7553375744 134.1149681734,55.8633347793 125.6964785173,50.78669997389999 z" id="path2" inkscape:connector-curvature="0" stroke-width="0" fill="#ffffff" fill-opacity="1"/><path d="m74.56997349999999,125.3406262653 c1.2612668157,0 2.2843421736,-1.0245102462 2.2843421736,-2.2843421736 V62.801019709799995 L94.93821291849999,80.886351843 c0.44768514960000005,0.44625026130000006 1.0316846877,0.6700928361 1.6142493375,0.6700928361 c0.5839995381,0 1.1694339645,-0.22384257480000003 1.6156842257999997,-0.6700928361 c0.8925005226000001,-0.8925005226000001 0.8925005226000001,-2.338867929 0,-3.2299335632999995 L77.6535484567,57.14325514289999 C76.01060135319999,55.49600337449999 73.1279107585,55.49600337449999 71.4863985433,57.140385366299995 L50.9718005182,77.6564182797 c-0.8925005226000001,0.8910656343000001 -0.8925005226000001,2.3374330406999997 0,3.2299335632999995 c0.8910656343000001,0.8925005226000001 2.338867929,0.8925005226000001 3.2299335632999995,0 L72.28706621469999,62.801019709799995 V123.05771897999999 c-0.0014348883,1.2598319274 1.0216404696,2.2829072853000003 2.2829072853000003,2.2829072853000003 z" id="path4" inkscape:connector-curvature="0" stroke-width="0" fill="#ffffff" fill-opacity="1"/></g></g></svg>